<svg width="44" height="44" viewBox="0 0 44 44" fill="none" xmlns="http://www.w3.org/2000/svg">
<g clip-path="url(#clip0_126_3)">
<path d="M9.16667 9.16665C9.16667 8.68042 9.35982 8.2141 9.70364 7.87028C10.0475 7.52647 10.5138 7.33331 11 7.33331H14.6667C15.1529 7.33331 15.6192 7.52647 15.963 7.87028C16.3068 8.2141 16.5 8.68042 16.5 9.16665V34.8333C16.5 35.3195 16.3068 35.7859 15.963 36.1297C15.6192 36.4735 15.1529 36.6666 14.6667 36.6666H11C10.5138 36.6666 10.0475 36.4735 9.70364 36.1297C9.35982 35.7859 9.16667 35.3195 9.16667 34.8333V9.16665Z" stroke="#4169E1" stroke-width="2.75" stroke-linecap="round" stroke-linejoin="round"/>
<path d="M16.5 9.16665C16.5 8.68042 16.6932 8.2141 17.037 7.87028C17.3808 7.52647 17.8471 7.33331 18.3333 7.33331H22C22.4862 7.33331 22.9525 7.52647 23.2964 7.87028C23.6402 8.2141 23.8333 8.68042 23.8333 9.16665V34.8333C23.8333 35.3195 23.6402 35.7859 23.2964 36.1297C22.9525 36.4735 22.4862 36.6666 22 36.6666H18.3333C17.8471 36.6666 17.3808 36.4735 17.037 36.1297C16.6932 35.7859 16.5 35.3195 16.5 34.8333V9.16665Z" stroke="#4169E1" stroke-width="2.75" stroke-linecap="round" stroke-linejoin="round"/>
<path d="M9.16667 14.6667H16.5" stroke="#4169E1" stroke-width="2.75" stroke-linecap="round" stroke-linejoin="round"/>
<path d="M16.5 29.3333H23.8333" stroke="#4169E1" stroke-width="2.75" stroke-linecap="round" stroke-linejoin="round"/>
<path d="M25.3055 8.35998L29.3095 7.38831C30.3398 7.14081 31.3867 7.73664 31.6598 8.73031L38.434 33.33C38.5535 33.7803 38.5006 34.2591 38.2856 34.6725C38.0706 35.0858 37.709 35.4041 37.2717 35.5648L37.0278 35.64L33.0238 36.6116C31.9935 36.8591 30.9467 36.2633 30.6735 35.2696L23.8993 10.67C23.7798 10.2196 23.8328 9.74086 24.0477 9.32749C24.2627 8.91411 24.6243 8.59588 25.0617 8.43514L25.3055 8.35998Z" stroke="#4169E1" stroke-width="2.75" stroke-linecap="round" stroke-linejoin="round"/>
<path d="M25.6667 16.5L33 14.6667" stroke="#4169E1" stroke-width="2.75" stroke-linecap="round" stroke-linejoin="round"/>
<path d="M29.3333 29.3333L36.5255 27.5367" stroke="#4169E1" stroke-width="2.75" stroke-linecap="round" stroke-linejoin="round"/>
</g>
<defs>
<clipPath id="clip0_126_3">
<rect width="44" height="44" fill="white"/>
</clipPath>
</defs>
</svg>
