<svg width="52" height="52" viewBox="0 0 52 52" fill="none" xmlns="http://www.w3.org/2000/svg">
<g clip-path="url(#clip0_128_15)">
<path d="M10.8333 10.8333C10.8333 10.2587 11.0616 9.7076 11.4679 9.30127C11.8742 8.89495 12.4253 8.66667 13 8.66667H17.3333C17.9079 8.66667 18.459 8.89495 18.8654 9.30127C19.2717 9.7076 19.5 10.2587 19.5 10.8333V41.1667C19.5 41.7413 19.2717 42.2924 18.8654 42.6987C18.459 43.1051 17.9079 43.3333 17.3333 43.3333H13C12.4253 43.3333 11.8742 43.1051 11.4679 42.6987C11.0616 42.2924 10.8333 41.7413 10.8333 41.1667V10.8333Z" stroke="white" stroke-width="2.75" stroke-linecap="round" stroke-linejoin="round"/>
<path d="M19.5 10.8333C19.5 10.2587 19.7283 9.7076 20.1346 9.30127C20.5409 8.89495 21.092 8.66667 21.6667 8.66667H26C26.5746 8.66667 27.1257 8.89495 27.5321 9.30127C27.9384 9.7076 28.1667 10.2587 28.1667 10.8333V41.1667C28.1667 41.7413 27.9384 42.2924 27.5321 42.6987C27.1257 43.1051 26.5746 43.3333 26 43.3333H21.6667C21.092 43.3333 20.5409 43.1051 20.1346 42.6987C19.7283 42.2924 19.5 41.7413 19.5 41.1667V10.8333Z" stroke="white" stroke-width="2.75" stroke-linecap="round" stroke-linejoin="round"/>
<path d="M10.8333 17.3333H19.5" stroke="white" stroke-width="2.75" stroke-linecap="round" stroke-linejoin="round"/>
<path d="M19.5 34.6667H28.1667" stroke="white" stroke-width="2.75" stroke-linecap="round" stroke-linejoin="round"/>
<path d="M29.9065 9.88L34.6385 8.73166C35.8561 8.43916 37.0933 9.14333 37.4161 10.3177L45.422 39.39C45.5632 39.9222 45.5007 40.488 45.2466 40.9766C44.9925 41.4651 44.5652 41.8412 44.0483 42.0312L43.7601 42.12L39.0281 43.2683C37.8105 43.5608 36.5733 42.8567 36.2505 41.6823L28.2446 12.61C28.1034 12.0778 28.166 11.512 28.42 11.0234C28.6741 10.5349 29.1015 10.1588 29.6183 9.96883L29.9065 9.88Z" stroke="white" stroke-width="2.75" stroke-linecap="round" stroke-linejoin="round"/>
<path d="M30.3333 19.5L39 17.3333" stroke="white" stroke-width="2.75" stroke-linecap="round" stroke-linejoin="round"/>
<path d="M34.6667 34.6667L43.1665 32.5433" stroke="white" stroke-width="2.75" stroke-linecap="round" stroke-linejoin="round"/>
</g>
<defs>
<clipPath id="clip0_128_15">
<rect width="52" height="52" fill="white"/>
</clipPath>
</defs>
</svg>
