<svg width="35" height="35" viewBox="0 0 35 35" fill="none" xmlns="http://www.w3.org/2000/svg">
<g clip-path="url(#clip0_614_58)">
<path d="M24.7917 4.87083C26.9912 6.14083 28.821 7.96327 30.0998 10.1577C31.3785 12.3522 32.062 14.8426 32.0825 17.3824C32.103 19.9222 31.4599 22.4233 30.2167 24.6381C28.9736 26.8529 27.1735 28.7047 24.9947 30.0101C22.816 31.3154 20.3341 32.0291 17.7947 32.0805C15.2554 32.1319 12.7467 31.5192 10.5169 30.3031C8.28709 29.0869 6.41358 27.3095 5.08183 25.1468C3.75007 22.9841 3.00624 20.511 2.92398 17.9725L2.91669 17.5L2.92398 17.0275C3.00565 14.5089 3.73853 12.0545 5.05116 9.90353C6.3638 7.75254 8.21139 5.97837 10.4138 4.754C12.6163 3.52962 15.0984 2.89683 17.6182 2.91731C20.138 2.93778 22.6094 3.61083 24.7917 4.87083ZM22.9061 13.5523C22.6549 13.3012 22.3208 13.1504 21.9664 13.1281C21.612 13.1058 21.2617 13.2136 20.9811 13.4313L20.844 13.5523L16.0417 18.3531L14.1561 16.469L14.019 16.3479C13.7384 16.1304 13.3881 16.0227 13.0337 16.0451C12.6794 16.0675 12.3454 16.2183 12.0944 16.4693C11.8433 16.7204 11.6925 17.0544 11.6701 17.4087C11.6478 17.763 11.7554 18.1134 11.9729 18.394L12.094 18.531L15.0106 21.4477L15.1477 21.5688C15.4035 21.7672 15.718 21.8749 16.0417 21.8749C16.3654 21.8749 16.6799 21.7672 16.9356 21.5688L17.0727 21.4477L22.9061 15.6144L23.0271 15.4773C23.2448 15.1967 23.3526 14.8463 23.3303 14.4919C23.308 14.1375 23.1572 13.8034 22.9061 13.5523Z" fill="#4F46AF"/>
</g>
<defs>
<clipPath id="clip0_614_58">
<rect width="35" height="35" fill="white"/>
</clipPath>
</defs>
</svg>
