<svg width="31" height="31" viewBox="0 0 31 31" fill="none" xmlns="http://www.w3.org/2000/svg">
<g clip-path="url(#clip0_610_139)">
<path d="M3.875 15.5C3.875 16.5277 4.28326 17.5133 5.00996 18.24C5.73666 18.9667 6.72229 19.375 7.75 19.375C8.77771 19.375 9.76334 18.9667 10.49 18.24C11.2167 17.5133 11.625 16.5277 11.625 15.5C11.625 14.4723 11.2167 13.4867 10.49 12.76C9.76334 12.0333 8.77771 11.625 7.75 11.625C6.72229 11.625 5.73666 12.0333 5.00996 12.76C4.28326 13.4867 3.875 14.4723 3.875 15.5Z" stroke="white" stroke-width="2.75" stroke-linecap="round" stroke-linejoin="round"/>
<path d="M19.375 7.75C19.375 8.77771 19.7833 9.76334 20.51 10.49C21.2367 11.2167 22.2223 11.625 23.25 11.625C24.2777 11.625 25.2633 11.2167 25.99 10.49C26.7167 9.76334 27.125 8.77771 27.125 7.75C27.125 6.72229 26.7167 5.73666 25.99 5.00996C25.2633 4.28326 24.2777 3.875 23.25 3.875C22.2223 3.875 21.2367 4.28326 20.51 5.00996C19.7833 5.73666 19.375 6.72229 19.375 7.75Z" stroke="white" stroke-width="2.75" stroke-linecap="round" stroke-linejoin="round"/>
<path d="M19.375 23.25C19.375 24.2777 19.7833 25.2633 20.51 25.99C21.2367 26.7167 22.2223 27.125 23.25 27.125C24.2777 27.125 25.2633 26.7167 25.99 25.99C26.7167 25.2633 27.125 24.2777 27.125 23.25C27.125 22.2223 26.7167 21.2367 25.99 20.51C25.2633 19.7833 24.2777 19.375 23.25 19.375C22.2223 19.375 21.2367 19.7833 20.51 20.51C19.7833 21.2367 19.375 22.2223 19.375 23.25Z" stroke="white" stroke-width="2.75" stroke-linecap="round" stroke-linejoin="round"/>
<path d="M11.2375 13.8209L19.7625 9.4292" stroke="white" stroke-width="2.75" stroke-linecap="round" stroke-linejoin="round"/>
<path d="M11.2375 17.1792L19.7625 21.5709" stroke="white" stroke-width="2.75" stroke-linecap="round" stroke-linejoin="round"/>
</g>
<defs>
<clipPath id="clip0_610_139">
<rect width="31" height="31" fill="white"/>
</clipPath>
</defs>
</svg>
