<svg width="34" height="33" viewBox="0 0 34 33" fill="none" xmlns="http://www.w3.org/2000/svg">
<g clip-path="url(#clip0_614_54)">
<path d="M4.25 16.5C4.25 18.1251 4.57979 19.7343 5.22054 21.2357C5.86128 22.7371 6.80044 24.1013 7.98439 25.2504C9.16834 26.3996 10.5739 27.3111 12.1208 27.933C13.6677 28.5549 15.3256 28.875 17 28.875C18.6744 28.875 20.3323 28.5549 21.8792 27.933C23.4261 27.3111 24.8317 26.3996 26.0156 25.2504C27.1996 24.1013 28.1387 22.7371 28.7795 21.2357C29.4202 19.7343 29.75 18.1251 29.75 16.5C29.75 14.8749 29.4202 13.2657 28.7795 11.7643C28.1387 10.2629 27.1996 8.89868 26.0156 7.74955C24.8317 6.60043 23.4261 5.68889 21.8792 5.06699C20.3323 4.44509 18.6744 4.125 17 4.125C15.3256 4.125 13.6677 4.44509 12.1208 5.06699C10.5739 5.68889 9.16834 6.60043 7.98439 7.74955C6.80044 8.89868 5.86128 10.2629 5.22054 11.7643C4.57979 13.2657 4.25 14.8749 4.25 16.5Z" stroke="#9E9E9E" stroke-width="2.75" stroke-linecap="round" stroke-linejoin="round"/>
<path d="M12.75 16.5L15.5833 19.25L21.25 13.75" stroke="#9E9E9E" stroke-width="2.75" stroke-linecap="round" stroke-linejoin="round"/>
</g>
<defs>
<clipPath id="clip0_614_54">
<rect width="34" height="33" fill="white"/>
</clipPath>
</defs>
</svg>
