<svg width="22" height="33" viewBox="0 0 22 33" fill="none" xmlns="http://www.w3.org/2000/svg">
<path d="M16.5 8.54415e-09C17.9029 -7.81398e-05 19.2528 0.535929 20.2735 1.49835C21.2942 2.46078 21.9085 3.77686 21.9908 5.17733L22 5.5V31.1667C22.0001 31.4733 21.9232 31.7751 21.7765 32.0444C21.6298 32.3137 21.4178 32.5418 21.1601 32.708C20.9024 32.8742 20.6071 32.973 20.3012 32.9955C19.9954 33.0181 19.6888 32.9635 19.4095 32.8368L19.2243 32.7378L10.9982 27.8043L2.77567 32.7378C2.51275 32.8956 2.21445 32.9849 1.90808 32.9976C1.60172 33.0103 1.29706 32.9459 1.02201 32.8104C0.74695 32.6749 0.510279 32.4725 0.333654 32.2219C0.157029 31.9712 0.0460933 31.6803 0.0110001 31.3757L8.54415e-09 31.1667V5.5C-7.81398e-05 4.09711 0.535929 2.74722 1.49835 1.72652C2.46078 0.705821 3.77686 0.0914696 5.17733 0.00916688L5.5 8.54415e-09H16.5Z" fill="black"/>
</svg>
